<?xml version="1.0" encoding="UTF-8"?>
<!-- Generator: visioncortex VTracer 0.6.4 -->
<svg version="1.1" xmlns="http://www.w3.org/2000/svg" width="1983" height="793">
<path d="M0 0 C654.39 0 1308.78 0 1983 0 C1983 261.69 1983 523.38 1983 793 C1328.61 793 674.22 793 0 793 C0 531.31 0 269.62 0 0 Z " fill="#FDFDFD" transform="translate(0,0)"/>
<path d="M0 0 C17.93 15.99 28.43 37.41 33.01 60.63 C33.28 61.8 33.28 61.8 33.55 62.99 C34.46 68.15 34.2 73.41 34.2 78.63 C34.21 79.79 34.22 80.94 34.24 82.14 C34.26 93.73 32.86 104.59 28.89 115.51 C28.58 116.36 28.27 117.21 27.96 118.09 C19.82 140 6.27 157.34 -12.99 170.63 C-13.64 171.09 -14.28 171.55 -14.95 172.02 C-18.71 174.63 -18.71 174.63 -20.99 174.63 C-13.51 184.7 -6.01 194.72 1.87 204.46 C5.62 209.11 9.22 213.85 12.78 218.64 C15.7 222.55 18.67 226.41 21.65 230.27 C22.77 231.72 23.89 233.18 25.01 234.63 C25.9 235.75 25.9 235.75 26.8 236.88 C28.01 238.63 28.01 238.63 28.01 240.63 C19.32 240.96 10.63 241.21 1.93 241.36 C-2.11 241.43 -6.14 241.53 -10.18 241.69 C-14.08 241.84 -17.98 241.92 -21.89 241.96 C-23.37 241.99 -24.86 242.04 -26.34 242.11 C-37.61 242.67 -37.61 242.67 -41.59 239.26 C-45 235.41 -47.47 231.09 -49.99 226.63 C-51.01 225.19 -52.05 223.76 -53.13 222.36 C-53.57 221.77 -54.02 221.18 -54.47 220.57 C-55.13 219.71 -55.13 219.71 -55.8 218.82 C-56.28 218.17 -56.77 217.53 -57.27 216.86 C-60.03 213.19 -62.82 209.54 -65.64 205.91 C-66.54 204.74 -66.54 204.74 -67.46 203.55 C-68.63 202.05 -69.8 200.54 -70.97 199.04 C-71.5 198.36 -72.02 197.68 -72.57 196.98 C-73.03 196.38 -73.5 195.78 -73.98 195.17 C-74.99 193.63 -74.99 193.63 -74.99 191.63 C-75.85 191.66 -75.85 191.66 -76.72 191.68 C-110.96 192.49 -142.13 183.35 -167.57 159.44 C-181.98 145.44 -191.96 128.38 -197.08 109.02 C-197.82 105.79 -197.82 105.79 -198.99 103.63 C-203.77 73.78 -198.65 43.69 -181.11 18.82 C-179.76 17.07 -178.39 15.34 -176.99 13.63 C-175.88 12.28 -175.88 12.28 -174.75 10.9 C-155.22 -11.73 -124.75 -27.97 -94.93 -31.13 C-58.76 -33.35 -27.55 -23.82 0 0 Z " fill="#0F0F0F" transform="translate(1054.9873046875,328.368408203125)"/>
<path d="M0 0 C0.87 -0 1.74 -0.01 2.64 -0.01 C4.48 -0.01 6.31 -0.01 8.15 0.01 C10.96 0.02 13.77 0.01 16.57 -0.01 C18.36 -0.01 20.15 -0.01 21.94 0 C22.77 -0.01 23.61 -0.01 24.47 -0.02 C29.11 0.04 32.34 0.28 36.04 3.4 C37.55 5.64 37.55 5.64 38.8 8.27 C39.28 9.26 39.76 10.25 40.25 11.27 C40.74 12.3 41.22 13.33 41.72 14.4 C42.68 16.4 43.64 18.4 44.61 20.4 C45.4 22.04 45.4 22.04 46.21 23.71 C48.7 28.8 51.38 33.79 54.03 38.8 C57.22 44.84 60.36 50.91 63.47 56.99 C63.93 57.89 64.39 58.78 64.86 59.7 C66.72 63.35 68.57 66.99 70.43 70.64 C75.68 80.93 80.96 91.2 86.36 101.41 C90.46 109.19 94.48 117.01 98.48 124.84 C100.64 129.07 102.81 133.3 104.98 137.53 C105.41 138.37 105.84 139.21 106.28 140.08 C121.97 170.73 121.97 170.73 138.14 201.13 C146.04 215.73 153.79 230.43 161.42 245.17 C162.54 247.32 163.66 249.47 164.79 251.61 C166.37 254.63 167.94 257.67 169.51 260.71 C170 261.63 170.48 262.55 170.99 263.49 C171.42 264.35 171.85 265.2 172.3 266.07 C172.68 266.82 173.07 267.56 173.47 268.32 C174.04 270.4 174.04 270.4 172.04 274.4 C151.91 274.4 131.78 274.4 111.04 274.4 C99.22 251.95 99.22 251.95 94.66 243.21 C94.17 242.27 93.67 241.32 93.16 240.35 C92.68 239.42 92.2 238.5 91.7 237.54 C91.28 236.74 90.86 235.94 90.43 235.12 C88.6 231.56 86.82 227.98 85.04 224.4 C45.44 224.07 5.84 223.74 -34.96 223.4 C-33.76 220.38 -32.63 217.61 -31.16 214.76 C-30.65 213.75 -30.65 213.75 -30.12 212.73 C-29.75 212.01 -29.39 211.3 -29.01 210.57 C-28.62 209.82 -28.24 209.07 -27.84 208.3 C-27.03 206.72 -26.21 205.14 -25.4 203.56 C-24.16 201.17 -22.93 198.78 -21.71 196.39 C-10.11 173.84 -10.11 173.84 -6.96 171.4 C-4.17 171.04 -4.17 171.04 -0.75 171.06 C1.17 171.06 1.17 171.06 3.13 171.06 C4.53 171.07 5.93 171.09 7.33 171.11 C8.76 171.11 10.19 171.12 11.62 171.12 C15.38 171.13 19.15 171.16 22.91 171.19 C26.75 171.22 30.59 171.24 34.43 171.25 C41.97 171.28 49.5 171.34 57.04 171.4 C48.56 153.5 48.56 153.5 39.6 135.84 C39.07 134.82 38.54 133.8 37.99 132.76 C33.68 124.54 29.25 116.4 24.73 108.3 C24.26 107.45 23.79 106.6 23.3 105.72 C22.89 104.98 22.47 104.24 22.04 103.48 C21.06 101.45 20.49 99.59 20.04 97.4 C19.38 97.4 18.72 97.4 18.04 97.4 C14.57 90.47 14.57 90.47 11.04 83.4 C8.63 86.61 7.35 88.75 6.04 92.4 C5.38 92.4 4.72 92.4 4.04 92.4 C3.77 93.26 3.5 94.12 3.23 95.01 C2.04 98.38 0.62 101.39 -1.02 104.55 C-1.47 105.42 -1.47 105.42 -1.92 106.3 C-2.89 108.17 -3.86 110.03 -4.84 111.9 C-5.52 113.2 -6.2 114.51 -6.87 115.81 C-11.88 125.42 -17.03 134.95 -22.25 144.45 C-24.78 149.04 -27.26 153.65 -29.71 158.27 C-30.03 158.87 -30.35 159.46 -30.67 160.07 C-33.06 164.58 -35.34 169.14 -37.61 173.7 C-41.87 182.24 -46.21 190.74 -50.56 199.22 C-51.83 201.7 -53.1 204.17 -54.37 206.65 C-58.95 215.59 -63.59 224.51 -68.28 233.4 C-71.09 238.73 -73.87 244.08 -76.62 249.44 C-77.18 250.51 -77.18 250.51 -77.74 251.61 C-79.22 254.49 -80.7 257.38 -82.18 260.27 C-83.28 262.43 -84.39 264.59 -85.5 266.75 C-85.84 267.41 -86.17 268.06 -86.52 268.74 C-88.85 273.29 -88.85 273.29 -89.96 274.4 C-91.96 274.49 -93.96 274.52 -95.95 274.51 C-97.23 274.51 -98.52 274.51 -99.84 274.51 C-101.24 274.51 -102.65 274.5 -104.06 274.5 C-105.5 274.49 -106.93 274.49 -108.36 274.49 C-112.14 274.49 -115.92 274.48 -119.7 274.47 C-123.56 274.46 -127.41 274.45 -131.26 274.45 C-138.83 274.44 -146.4 274.42 -153.96 274.4 C-154.96 271.4 -154.96 271.4 -153.91 268.88 C-153.08 267.39 -153.08 267.39 -152.24 265.86 C-151.62 264.73 -151.01 263.61 -150.38 262.45 C-150.05 261.85 -149.72 261.25 -149.37 260.63 C-147.98 258.12 -146.6 255.59 -145.22 253.06 C-144.51 251.75 -143.8 250.45 -143.09 249.15 C-139.69 242.93 -136.41 236.64 -133.15 230.34 C-132.08 228.27 -131.01 226.21 -129.95 224.15 C-129.44 223.17 -128.94 222.2 -128.42 221.2 C-122.65 210.08 -116.77 199.02 -110.78 188.02 C-105.53 178.39 -100.46 168.66 -95.44 158.9 C-90.93 150.13 -86.29 141.43 -81.52 132.78 C-77.37 125.22 -73.41 117.57 -69.46 109.9 C-64.56 100.36 -59.56 90.9 -54.38 81.5 C-50.64 74.69 -47.03 67.81 -43.46 60.9 C-38.9 52.07 -34.23 43.31 -29.43 34.61 C-26.78 29.78 -24.19 24.93 -21.69 20.02 C-21.15 18.97 -20.61 17.91 -20.05 16.83 C-19.02 14.8 -17.99 12.76 -16.97 10.72 C-16.27 9.35 -16.27 9.35 -15.56 7.95 C-15.15 7.14 -14.75 6.33 -14.33 5.5 C-10.58 -0.28 -6.38 -0.05 0 0 Z " fill="#0F0F0F" transform="translate(1241.96484375,240.6015625)"/>
<path d="M0 0 C17.16 0 34.32 0 52 0 C52.33 42.57 52.66 85.14 53 129 C61.45 118.03 61.45 118.03 69.62 106.88 C71.17 104.72 72.71 102.57 74.27 100.42 C75.35 98.91 76.42 97.39 77.46 95.86 C90.81 76.73 107.39 59.74 123.38 42.81 C123.85 42.3 124.33 41.79 124.83 41.27 C168.03 -4.58 168.03 -4.58 198.46 -6.06 C214.1 -6.38 229.9 -3.97 245 0 C244.48 4.05 243.51 5.99 240.63 8.86 C239.55 9.95 239.55 9.95 238.44 11.07 C237.65 11.85 236.85 12.63 236.03 13.44 C235.19 14.28 234.36 15.12 233.49 15.98 C231.2 18.28 228.9 20.56 226.59 22.84 C224.18 25.24 221.77 27.65 219.36 30.05 C215.31 34.1 211.26 38.13 207.19 42.16 C202 47.32 196.82 52.48 191.64 57.65 C187.16 62.12 182.69 66.57 178.21 71.03 C177.26 71.98 176.3 72.93 175.35 73.89 C172.19 77.03 169.04 80.16 165.88 83.3 C165.1 84.08 164.31 84.86 163.51 85.66 C159.39 89.74 155.2 93.66 150.79 97.43 C147.62 100.21 144.68 103.23 141.73 106.25 C140.39 107.59 139.06 108.94 137.73 110.28 C135.66 112.37 133.59 114.47 131.53 116.57 C129.52 118.61 127.5 120.65 125.48 122.68 C124.86 123.32 124.23 123.95 123.6 124.61 C122.1 126.11 120.56 127.56 119 129 C118.34 129 117.68 129 117 129 C120.89 133.56 124.88 137.93 129.16 142.13 C130.92 143.92 132.56 145.77 134.19 147.69 C138.09 152.17 142.26 156.34 146.5 160.5 C151.3 165.21 155.92 169.98 160.3 175.08 C163.06 178.2 166.03 181.09 169 184 C172.61 187.53 176.11 191.08 179.41 194.91 C183.22 199.33 187.33 203.41 191.5 207.5 C196.32 212.23 200.96 217.02 205.37 222.14 C207.79 224.89 210.38 227.44 213 230 C216.22 233.18 219.39 236.35 222.31 239.81 C226.42 244.65 231 249.02 235.5 253.48 C239.4 257.36 243.17 261.27 246.7 265.48 C248.01 267.06 248.01 267.06 249.67 268.58 C251 270 251 270 251 272 C240.93 274.31 230.03 273.69 219.72 273.86 C215.75 273.93 211.79 274.02 207.83 274.19 C180.14 275.31 180.14 275.31 173.14 270.01 C170.03 266.99 167.64 263.62 165.33 259.97 C163.22 256.85 160.58 254.37 157.85 251.79 C156.88 250.82 155.9 249.86 154.94 248.9 C153.98 247.95 153.02 247.01 152.06 246.06 C146.46 240.54 140.94 235.03 135.83 229.05 C131.92 224.67 127.67 220.62 123.5 216.5 C118.05 211.13 112.71 205.77 107.73 199.96 C104.44 196.24 100.86 192.79 97.31 189.31 C92.95 185.03 88.77 180.82 85 176 C84.22 175.24 83.44 174.48 82.63 173.7 C79.32 170.31 76.67 166.61 73.94 162.75 C73.38 161.97 72.82 161.19 72.25 160.38 C71.08 158.75 69.92 157.11 68.76 155.48 C67.02 153.03 65.27 150.59 63.52 148.14 C62.43 146.62 61.34 145.09 60.25 143.56 C59.74 142.85 59.22 142.13 58.7 141.4 C58.22 140.73 57.75 140.06 57.27 139.38 C56.85 138.8 56.44 138.22 56.01 137.62 C55 136 55 136 54 133 C53.34 133 52.68 133 52 133 C52 133.72 52 134.43 52 135.17 C52.02 152.55 52.04 169.93 52.05 187.32 C52.06 195.72 52.06 204.13 52.08 212.54 C52.09 219.86 52.09 227.19 52.09 234.51 C52.1 238.39 52.1 242.27 52.11 246.15 C52.11 249.8 52.11 253.45 52.11 257.1 C52.11 259.08 52.12 261.07 52.12 263.05 C52.12 264.23 52.12 265.4 52.12 266.6 C52.12 267.63 52.12 268.65 52.12 269.71 C52 272 52 272 51 273 C34.17 273 17.34 273 0 273 C0 182.91 0 92.82 0 0 Z " fill="#0F0F0F" transform="translate(442,242)"/>
<path d="M0 0 C0.97 0 1.95 0 2.95 0.01 C4.07 0.01 5.19 0.01 6.34 0.01 C8.11 0.01 8.11 0.01 9.92 0.02 C11.54 0.02 11.54 0.02 13.19 0.03 C17.25 0.03 21.3 0.04 25.35 0.06 C34.41 0.08 43.46 0.1 52.79 0.12 C52.79 19.26 52.79 38.4 52.79 58.12 C74.24 58.12 95.69 58.12 117.79 58.12 C117.81 66.84 117.83 75.57 117.85 84.56 C117.86 87.32 117.87 90.07 117.88 92.91 C117.88 95.09 117.89 97.26 117.89 99.43 C117.89 100.57 117.9 101.71 117.9 102.88 C117.91 104.5 117.91 104.5 117.91 106.14 C117.91 107.08 117.91 108.02 117.91 108.99 C117.79 111.12 117.79 111.12 116.79 112.12 C114.83 112.21 112.86 112.24 110.9 112.23 C109.63 112.23 108.37 112.23 107.07 112.23 C105.69 112.23 104.3 112.22 102.91 112.22 C101.5 112.22 100.09 112.21 98.68 112.21 C94.96 112.21 91.24 112.2 87.52 112.19 C83.72 112.18 79.93 112.17 76.14 112.17 C68.69 112.16 61.24 112.14 53.79 112.12 C53.85 119.77 53.93 127.42 54.03 135.07 C54.07 138.62 54.11 142.18 54.14 145.73 C54.17 149.83 54.22 153.92 54.28 158.02 C54.29 159.28 54.29 160.54 54.3 161.84 C54.5 174 56.92 183.88 65.46 192.87 C79.74 205.89 100.28 206.37 118.54 206.75 C123.9 206.87 129.27 206.99 134.79 207.12 C134.79 224.28 134.79 241.44 134.79 259.12 C128.91 259.14 123.04 259.16 116.98 259.18 C115.15 259.19 113.32 259.2 111.43 259.21 C99.66 259.24 88.3 258.81 76.79 256.12 C75.67 255.87 74.55 255.61 73.39 255.35 C47.45 248.98 23.73 235.32 9.65 212.1 C-4.82 187.33 -3.65 160.85 -3.55 133.1 C-3.53 128.45 -3.53 123.8 -3.53 119.15 C-3.53 111.37 -3.51 103.59 -3.49 95.81 C-3.46 85.82 -3.45 75.82 -3.45 65.83 C-3.44 57.22 -3.43 48.6 -3.42 39.99 C-3.41 37.23 -3.41 34.46 -3.41 31.7 C-3.4 27.37 -3.39 23.05 -3.38 18.72 C-3.37 17.14 -3.37 15.55 -3.37 13.96 C-3.37 11.8 -3.36 9.64 -3.35 7.48 C-3.35 6.27 -3.34 5.06 -3.34 3.81 C-3.16 0.17 -3.16 0.17 0 0 Z " fill="#101010" transform="translate(1407.208267211914,259.87974548339844)"/>
<path d="M0 0 C1.62 -0 1.62 -0 3.27 -0.01 C4.44 -0.01 5.61 -0.01 6.82 -0 C8.02 -0 9.21 -0.01 10.44 -0.01 C12.97 -0.01 15.51 -0.01 18.04 -0 C21.93 0 25.82 -0 29.71 -0.01 C32.16 -0.01 34.62 -0.01 37.07 -0 C38.24 -0.01 39.42 -0.01 40.62 -0.01 C41.7 -0.01 42.78 -0 43.89 0 C44.84 0 45.8 0 46.78 0 C48.95 0.13 48.95 0.13 49.95 1.13 C50.04 2.58 50.07 4.04 50.07 5.5 C50.07 6.45 50.08 7.4 50.08 8.37 C50.08 9.43 50.07 10.48 50.07 11.57 C50.07 12.68 50.08 13.79 50.08 14.94 C50.08 18.69 50.08 22.44 50.07 26.2 C50.08 28.87 50.08 31.55 50.08 34.23 C50.08 40.77 50.08 47.31 50.08 53.85 C50.08 59.16 50.08 64.47 50.08 69.78 C50.08 70.53 50.08 71.29 50.08 72.07 C50.08 73.6 50.08 75.13 50.08 76.66 C50.08 91.05 50.08 105.44 50.07 119.82 C50.07 132.18 50.07 144.54 50.08 156.9 C50.08 171.23 50.08 185.57 50.08 199.9 C50.08 201.43 50.08 202.95 50.08 204.48 C50.08 205.61 50.08 205.61 50.08 206.76 C50.08 212.06 50.08 217.37 50.08 222.68 C50.08 229.15 50.08 235.61 50.08 242.07 C50.08 245.37 50.08 248.68 50.08 251.98 C50.08 255.55 50.08 259.12 50.07 262.69 C50.07 263.74 50.08 264.8 50.08 265.89 C50.08 267.31 50.08 267.31 50.07 268.76 C50.07 269.59 50.07 270.41 50.07 271.26 C49.95 273.13 49.95 273.13 48.95 274.13 C47.23 274.22 45.5 274.25 43.78 274.24 C42.68 274.24 41.58 274.24 40.45 274.24 C39.25 274.24 38.05 274.23 36.82 274.23 C35.6 274.23 34.38 274.22 33.12 274.22 C29.21 274.22 25.3 274.2 21.38 274.19 C18.74 274.19 16.09 274.18 13.45 274.18 C6.95 274.17 0.45 274.15 -6.05 274.13 C-6.08 239.37 -6.1 204.61 -6.11 169.84 C-6.11 165.75 -6.11 161.65 -6.11 157.55 C-6.11 156.73 -6.11 155.91 -6.11 155.07 C-6.11 141.84 -6.12 128.61 -6.13 115.37 C-6.14 101.81 -6.15 88.24 -6.15 74.67 C-6.15 66.29 -6.15 57.91 -6.16 49.53 C-6.17 43.79 -6.17 38.06 -6.17 32.32 C-6.17 29 -6.17 25.69 -6.17 22.37 C-6.18 18.79 -6.18 15.2 -6.17 11.61 C-6.18 10.55 -6.18 9.5 -6.18 8.4 C-6.18 7.45 -6.18 6.5 -6.18 5.52 C-6.18 4.27 -6.18 4.27 -6.18 3 C-5.92 -0.88 -3.29 0 0 0 Z " fill="#0E0F0E" transform="translate(711.0546875,240.87060546875)"/>
<path d="M0 0 C13.12 9.09 23.36 21.7 26.62 37.58 C29.07 53.05 27.5 69.3 18.62 82.5 C17.44 84.02 16.23 85.52 15 87 C14.5 87.68 14 88.36 13.49 89.07 C4.31 100.89 -11.44 107.89 -26 110 C-35.93 110.51 -46.41 110.94 -56 108 C-57.28 107.65 -57.28 107.65 -58.58 107.29 C-74.15 102.42 -85.68 91.56 -93.27 77.45 C-95.31 73.39 -96.94 69.42 -98 65 C-98.18 64.27 -98.36 63.54 -98.55 62.79 C-101.3 45.69 -97.79 30.2 -88 16 C-67.03 -11.65 -29.31 -17.93 0 0 Z " fill="#FCFCFC" transform="translate(1008,358)"/>
<path d="M0 0 C0.99 0 1.99 0 3.01 0.01 C4.13 0.01 5.25 0.01 6.41 0.01 C8.23 0.01 8.23 0.01 10.1 0.02 C11.96 0.02 11.96 0.02 13.86 0.03 C17.17 0.03 20.48 0.04 23.78 0.05 C27.15 0.06 30.52 0.07 33.9 0.07 C40.52 0.08 47.13 0.1 53.75 0.12 C53.78 25.66 53.79 51.2 53.81 76.73 C53.81 88.59 53.82 100.45 53.83 112.3 C53.84 122.63 53.85 132.97 53.85 143.3 C53.85 148.77 53.85 154.24 53.86 159.72 C53.87 164.86 53.87 170.01 53.87 175.15 C53.87 177.05 53.87 178.94 53.87 180.84 C53.88 183.41 53.88 185.98 53.87 188.56 C53.88 189.32 53.88 190.08 53.88 190.86 C53.87 196.01 53.87 196.01 52.75 197.12 C51.04 197.22 49.32 197.25 47.61 197.25 C46.51 197.25 45.41 197.26 44.28 197.26 C43.09 197.26 41.89 197.26 40.66 197.25 C39.44 197.25 38.23 197.25 36.97 197.26 C34.39 197.26 31.81 197.25 29.23 197.25 C25.27 197.25 21.31 197.25 17.34 197.26 C14.84 197.26 12.35 197.26 9.85 197.25 C8.06 197.26 8.06 197.26 6.23 197.26 C5.13 197.26 4.03 197.25 2.9 197.25 C1.44 197.25 1.44 197.25 -0.04 197.25 C-2.25 197.12 -2.25 197.12 -3.25 196.12 C-3.35 193.61 -3.38 191.12 -3.37 188.6 C-3.37 187.81 -3.38 187.01 -3.38 186.19 C-3.38 183.5 -3.38 180.81 -3.38 178.12 C-3.38 176.2 -3.38 174.28 -3.38 172.36 C-3.39 167.13 -3.38 161.9 -3.38 156.68 C-3.38 151.22 -3.38 145.76 -3.38 140.3 C-3.38 131.13 -3.38 121.96 -3.38 112.79 C-3.37 102.17 -3.37 91.55 -3.38 80.93 C-3.38 71.83 -3.38 62.73 -3.38 53.64 C-3.38 48.19 -3.38 42.75 -3.38 37.31 C-3.39 32.19 -3.38 27.08 -3.38 21.96 C-3.38 20.08 -3.38 18.2 -3.38 16.31 C-3.38 13.76 -3.38 11.2 -3.37 8.64 C-3.38 7.88 -3.38 7.13 -3.38 6.35 C-3.36 0.18 -3.36 0.18 0 0 Z " fill="#101110" transform="translate(788.2462310791016,317.87974548339844)"/>
<path d="M0 0 C2.03 1.24 4.03 2.53 6 3.88 C6.72 4.36 7.44 4.85 8.19 5.36 C15.43 10.92 18.8 19.01 20 27.88 C20.89 35.75 17.89 43.3 14.25 50.19 C7.39 58.38 -0.68 64.1 -11.57 65.25 C-15.08 65.31 -18.5 65.18 -22 64.88 C-22.85 64.8 -23.7 64.73 -24.57 64.66 C-32.92 63.38 -39.61 57.25 -44.71 50.79 C-50.37 42.37 -51.6 32.78 -50 22.88 C-47.02 13.36 -40.92 5.71 -32.44 0.5 C-21.92 -4.47 -10.47 -5.48 0 0 Z " fill="#101010" transform="translate(830,235.125)"/>
<path d="M0 0 C0.66 0 1.32 0 2 0 C5 3.46 5 3.46 5 6 C4.01 6.33 3.02 6.66 2 7 C1.67 50.56 1.34 94.12 1 139 C0.67 139 0.34 139 0 139 C0 93.13 0 47.26 0 0 Z " fill="#E3E1E3" transform="translate(494,375)"/>
<path d="M0 0 C0 3 0 3 -1.73 5.08 C-2.53 5.88 -3.34 6.68 -4.18 7.5 C-5.09 8.41 -6 9.32 -6.94 10.25 C-7.94 11.24 -8.95 12.23 -9.96 13.21 C-10.98 14.23 -12.01 15.25 -13.03 16.27 C-15.73 18.95 -18.44 21.62 -21.15 24.3 C-25.48 28.57 -29.8 32.85 -34.11 37.14 C-35.62 38.63 -37.13 40.12 -38.65 41.61 C-40.03 42.98 -40.03 42.98 -41.44 44.37 C-42.25 45.17 -43.06 45.97 -43.89 46.79 C-46.03 48.93 -46.03 48.93 -47.66 51.29 C-48.1 51.85 -48.54 52.42 -49 53 C-49.66 53 -50.32 53 -51 53 C-51.33 53.99 -51.66 54.98 -52 56 C-53.67 57.33 -55.33 58.67 -57 60 C-58.54 61.8 -60.02 63.64 -61.47 65.51 C-63.28 67.27 -64.58 67.48 -67 68 C-63.1 63.33 -59.04 58.9 -54.72 54.61 C-54.12 54.01 -53.53 53.41 -52.91 52.8 C-50.97 50.85 -49.02 48.91 -47.07 46.97 C-45.71 45.62 -44.35 44.26 -42.99 42.9 C-39.43 39.34 -35.87 35.79 -32.31 32.24 C-28.67 28.61 -25.03 24.98 -21.39 21.34 C-14.26 14.23 -7.13 7.11 0 0 Z " fill="#EAE9EA" transform="translate(685,247)"/>
<path d="M0 0 C0 5.53 -5.25 9.24 -9 13 C-13.92 17.75 -18.95 22.39 -24 27 C-24.66 26.67 -25.32 26.34 -26 26 C-17.42 17.42 -8.84 8.84 0 0 Z " fill="#2B2C2D" transform="translate(551,304)"/>
<path d="M0 0 C0.33 0.99 0.66 1.98 1 3 C-1.4 5.49 -3.83 7.97 -6.25 10.44 C-6.93 11.14 -7.61 11.85 -8.32 12.58 C-8.98 13.25 -9.64 13.93 -10.33 14.62 C-10.94 15.24 -11.54 15.87 -12.17 16.51 C-14.14 18.11 -15.52 18.6 -18 19 C-12.45 12.22 -6.24 6.14 0 0 Z " fill="#1E1E1F" transform="translate(591,264)"/>
<path d="M0 0 C0.66 0.33 1.32 0.66 2 1 C1.33 1.65 1.33 1.65 0.65 2.31 C-1.36 4.29 -3.37 6.27 -5.38 8.25 C-6.07 8.93 -6.77 9.61 -7.49 10.32 C-8.5 11.31 -8.5 11.31 -9.52 12.33 C-10.45 13.24 -10.45 13.24 -11.4 14.17 C-13.02 16.02 -14.01 17.76 -15 20 C-15.66 18.68 -16.32 17.36 -17 16 C-16.53 15.6 -16.05 15.2 -15.57 14.79 C-10.12 10.1 -5.03 5.13 0 0 Z " fill="#EEEDEE" transform="translate(576,355)"/>
<path d="M0 0 C10.23 0.33 20.46 0.66 31 1 C31 1.33 31 1.66 31 2 C30.14 2.03 29.28 2.05 28.4 2.08 C25.21 2.17 22.02 2.27 18.83 2.37 C17.45 2.42 16.07 2.46 14.69 2.5 C12.71 2.56 10.72 2.62 8.73 2.68 C6.94 2.74 6.94 2.74 5.12 2.79 C2.58 2.96 0.42 3.26 -2 4 C-1.34 2.68 -0.68 1.36 0 0 Z " fill="#191A19" transform="translate(1231,242)"/>
<path d="M0 0 C3.67 1.5 5.69 3.64 8.25 6.62 C8.96 7.44 9.66 8.26 10.39 9.1 C10.92 9.73 11.45 10.35 12 11 C11.34 11.66 10.68 12.32 10 13 C9.45 12.36 8.89 11.72 8.32 11.07 C7.23 9.83 7.23 9.83 6.12 8.56 C5.41 7.74 4.69 6.92 3.95 6.07 C2.17 3.94 2.17 3.94 0 3 C0 2.01 0 1.02 0 0 Z " fill="#1F1F1F" transform="translate(591,407)"/>
<path d="M0 0 C3.92 3.8 7.49 7.82 11 12 C7.13 12 6.5 10.93 3.81 8.25 C3.1 7.55 2.38 6.86 1.64 6.14 C0 4 0 4 0 0 Z " fill="#191919" transform="translate(880,476)"/>
<path d="M0 0 C-1.41 3.22 -3.1 5.32 -5.62 7.75 C-6.57 8.67 -6.57 8.67 -7.54 9.61 C-8.02 10.07 -8.5 10.53 -9 11 C-9.66 10.34 -10.32 9.68 -11 9 C-10.07 7.87 -9.13 6.75 -8.19 5.62 C-7.67 5 -7.14 4.37 -6.61 3.73 C-4.6 1.57 -3.05 0 0 0 Z " fill="#2E2E2E" transform="translate(608,323)"/>
<path d="M0 0 C-0.33 0.99 -0.66 1.98 -1 3 C-3.18 4.02 -3.18 4.02 -5.88 4.81 C-6.76 5.09 -7.64 5.36 -8.55 5.64 C-11 6 -11 6 -14 4 C-12.23 3.33 -10.46 2.66 -8.69 2 C-7.7 1.63 -6.72 1.26 -5.7 0.88 C-3 0 -3 0 0 0 Z " fill="#F3F3F3" transform="translate(1001,460)"/>
<path d="M0 0 C2.91 2.5 4.17 5.2 5.69 8.69 C6.12 9.68 6.56 10.68 7.01 11.7 C7.34 12.46 7.66 13.22 8 14 C7.34 14.66 6.68 15.32 6 16 C5 13.71 4 11.42 3 9.12 C2.71 8.47 2.43 7.82 2.13 7.15 C0 2.23 0 2.23 0 0 Z " fill="#161616" transform="translate(1346,379)"/>
<path d="M0 0 C0.66 0.99 1.32 1.98 2 3 C0.68 5.64 -0.64 8.28 -2 11 C-2.99 11 -3.98 11 -5 11 C-3.55 7.21 -1.85 3.61 0 0 Z " fill="#222222" transform="translate(1148,397)"/>
<path d="M0 0 C6.6 0.33 13.2 0.66 20 1 C20 1.33 20 1.66 20 2 C10.6 2.5 10.6 2.5 1 3 C0.67 2.01 0.34 1.02 0 0 Z " fill="#595959" transform="translate(958,467)"/>
<path d="M0 0 C0.66 0.33 1.32 0.66 2 1 C-0.6 4.9 -2.49 5.07 -7 6 C-9.23 5.55 -9.23 5.55 -11 5 C-9.21 4.14 -7.42 3.28 -5.62 2.44 C-4.63 1.96 -3.63 1.49 -2.6 1 C-1.74 0.67 -0.88 0.34 0 0 Z " fill="#404040" transform="translate(930,305)"/>
<path d="M0 0 C0 0.99 0 1.98 0 3 C-4.75 3.12 -4.75 3.12 -7 2 C-8.37 1.93 -9.75 1.92 -11.12 1.94 C-13.04 1.97 -13.04 1.97 -15 2 C-15 1.67 -15 1.34 -15 1 C-9.92 0.15 -5.15 -0.09 0 0 Z " fill="#3D3D3D" transform="translate(964,298)"/>
<path d="M0 0 C0.66 0.66 1.32 1.32 2 2 C-0.31 4.31 -2.62 6.62 -5 9 C-5.99 8.67 -6.98 8.34 -8 8 C-5.36 5.36 -2.72 2.72 0 0 Z " fill="#181819" transform="translate(600,255)"/>
<path d="M0 0 C0.99 0.33 1.98 0.66 3 1 C0.79 3.82 -1.4 6.53 -4 9 C-4.66 8.67 -5.32 8.34 -6 8 C-4.02 5.36 -2.04 2.72 0 0 Z " fill="#232424" transform="translate(879,341)"/>
<path d="M0 0 C-1.39 3.37 -2.98 4.99 -6 7 C-6 5.02 -6 3.04 -6 1 C-3.92 0.45 -2.16 0 0 0 Z " fill="#F0F0F0" transform="translate(501,363)"/>
<path d="M0 0 C4.68 1.48 4.68 1.48 6.31 4.12 C6.54 4.74 6.77 5.36 7 6 C6.01 6 5.02 6 4 6 C0 1.54 0 1.54 0 0 Z " fill="#242425" transform="translate(582,474)"/>
<path d="M0 0 C0.33 0 0.66 0 1 0 C1.12 5.75 1.12 5.75 0 8 C-2.06 8.62 -2.06 8.62 -4 9 C-2.8 5.92 -1.52 2.94 0 0 Z " fill="#2C2C2D" transform="translate(870,353)"/>
<path d="M0 0 C1.32 0.33 2.64 0.66 4 1 C4.67 4.33 5.33 7.67 6 11 C3.14 7.59 1.65 4.09 0 0 Z " fill="#171818" transform="translate(1263,341)"/>
<path d="M0 0 C2.25 0.25 2.25 0.25 4 1 C3.34 1 2.68 1 2 1 C1.34 2.32 0.68 3.64 0 5 C-1.32 4.67 -2.64 4.34 -4 4 C-2.25 1.94 -2.25 1.94 0 0 Z " fill="#262727" transform="translate(888,331)"/>
<path d="M0 0 C3 3.75 3 3.75 3 6 C0.69 5.67 -1.62 5.34 -4 5 C-3.01 4.67 -2.02 4.34 -1 4 C-0.27 1.98 -0.27 1.98 0 0 Z " fill="#EEEEEE" transform="translate(1296,405)"/>
<path d="M0 0 C0.66 0.33 1.32 0.66 2 1 C1.38 1.58 0.76 2.15 0.12 2.75 C-1.81 4.8 -2.9 6.43 -4 9 C-4.66 7.68 -5.32 6.36 -6 5 C-4.02 3.35 -2.04 1.7 0 0 Z " fill="#E7E6E8" transform="translate(565,366)"/>
<path d="M0 0 C0.69 1.69 0.69 1.69 1 4 C-0.31 6.75 -0.31 6.75 -2 9 C-2.66 9 -3.32 9 -4 9 C-2.8 5.92 -1.52 2.94 0 0 Z " fill="#282929" transform="translate(1118,454)"/>
<path d="M0 0 C0.66 1.32 1.32 2.64 2 4 C0.62 6 0.62 6 -1 8 C-1.66 8 -2.32 8 -3 8 C-1.12 2.25 -1.12 2.25 0 0 Z " fill="#2E2F2F" transform="translate(1123,444)"/>
</svg>